# Blender v2.74 (sub 0) OBJ File: ''
# www.blender.org
mtllib crystalCluster.mtl
o CrystalCluster_Cylinder.006
v 0.971756 0.044254 0.962457
v 0.971756 -0.003571 0.962457
v 0.971756 -0.003571 0.028481
v 0.037779 0.044254 0.962457
v 0.037779 -0.003571 0.962457
v 0.037779 0.044254 0.028481
v 0.037779 -0.003571 0.028481
v 0.971756 0.044254 0.028481
v 0.512206 0.371837 0.687383
v 0.594943 0.358365 0.731617
v 0.572485 0.216921 0.708836
v 0.596371 0.336497 0.823830
v 0.573608 0.199728 0.781335
v 0.515063 0.328101 0.871809
v 0.432326 0.341572 0.827575
v 0.444635 0.203718 0.784279
v 0.430898 0.363440 0.735362
v 0.507437 0.227512 0.674059
v 0.443512 0.220911 0.711780
v 0.500508 0.027185 0.642007
v 0.553420 0.004968 0.727787
v 0.450290 0.008158 0.730141
v 0.552522 0.018716 0.669815
v 0.509683 0.193127 0.819056
v 0.502304 -0.000311 0.757950
v 0.449392 0.021906 0.672170
v 0.519554 0.512876 0.818137
v 0.221742 0.176745 0.521629
v 0.176579 0.293068 0.518732
v 0.253594 0.317153 0.530720
v 0.282292 0.195680 0.531054
v 0.284536 0.318813 0.606185
v 0.238461 0.296391 0.669663
v 0.270394 0.179356 0.640293
v 0.161446 0.272306 0.657676
v 0.209843 0.160421 0.630867
v 0.185517 0.159115 0.571537
v 0.130504 0.270645 0.582210
v 0.251996 -0.001588 0.554763
v 0.348830 0.028693 0.569835
v 0.319865 0.014597 0.609742
v 0.280962 0.012508 0.514855
v 0.329379 0.027649 0.522392
v 0.306618 0.196986 0.590386
v 0.271448 -0.000544 0.602206
v 0.162552 0.430841 0.609639
v 0.777603 0.298842 0.477375
v 0.844975 0.282094 0.516964
v 0.801943 0.167901 0.524643
v 0.845240 0.281390 0.596877
v 0.802151 0.167348 0.587472
v 0.778134 0.297433 0.637201
v 0.749392 0.179961 0.619175
v 0.710762 0.314180 0.597612
v 0.710497 0.314884 0.517699
v 0.748975 0.181068 0.493518
v 0.696215 0.193681 0.525221
v 0.708575 0.015128 0.504780
v 0.750929 0.004600 0.529668
v 0.666554 0.024771 0.580370
v 0.751096 0.004157 0.579907
v 0.708908 0.014243 0.605258
v 0.696424 0.193127 0.588050
v 0.666387 0.025214 0.530131
v 0.811331 0.435350 0.558386
v 0.634478 0.160645 0.171556
v 0.647880 0.269644 0.105733
v 0.721222 0.277612 0.145233
v 0.692140 0.166910 0.202611
v 0.723922 0.310091 0.222309
v 0.694262 0.192444 0.263210
v 0.653280 0.334600 0.259883
v 0.579939 0.326631 0.220383
v 0.581062 0.205450 0.261695
v 0.577239 0.294153 0.143308
v 0.578939 0.179914 0.201097
v 0.615195 0.002302 0.253267
v 0.661302 0.007312 0.278101
v 0.618590 0.043139 0.350177
v 0.663000 0.027730 0.326556
v 0.638724 0.211714 0.292751
v 0.572482 0.038129 0.325345
v 0.570785 0.017711 0.276889
v 0.666888 0.437373 0.125244
v 0.350401 0.196695 0.218560
v 0.310312 0.330604 0.158709
v 0.395695 0.365018 0.196155
v 0.417531 0.223752 0.248001
v 0.400426 0.393208 0.291338
v 0.421250 0.245916 0.322835
v 0.319775 0.386984 0.349074
v 0.234392 0.352570 0.311627
v 0.290713 0.213964 0.338786
v 0.229660 0.324380 0.216444
v 0.286993 0.191801 0.263952
v 0.406241 0.003849 0.289247
v 0.462893 0.043207 0.372627
v 0.412190 0.039294 0.408924
v 0.459919 0.025485 0.312788
v 0.357842 0.241022 0.368227
v 0.358512 0.017659 0.385382
v 0.355538 -0.000064 0.325543
v 0.269457 0.522036 0.207810
v 0.503171 0.282599 0.389244
v 0.503171 0.484458 0.360758
v 0.618561 0.484458 0.427378
v 0.593892 0.282599 0.441621
v 0.618561 0.484458 0.560619
v 0.593892 0.282599 0.546376
v 0.503171 0.484458 0.627239
v 0.387782 0.484458 0.560619
v 0.412451 0.282599 0.546376
v 0.387782 0.484458 0.427378
v 0.412451 0.282599 0.441621
v 0.503171 -0.001989 0.410234
v 0.575713 -0.001989 0.535881
v 0.503171 -0.001990 0.577763
v 0.575713 -0.001989 0.452116
v 0.503171 0.282599 0.598753
v 0.430629 -0.001989 0.535881
v 0.430629 -0.001990 0.452116
v 0.503171 0.719936 0.493998
vt 0.663382 0.897339
vt 0.663377 0.929376
vt 0.037737 0.929266
vt 0.663744 0.931078
vt 0.035352 0.931077
vt 0.035352 0.898901
vt 0.662537 0.931535
vt 0.037563 0.932160
vt 0.037531 0.900158
vt 0.665456 0.898155
vt 0.665456 0.930520
vt 0.033409 0.930519
vt 0.485726 0.302476
vt 0.205163 0.302476
vt 0.205163 0.021913
vt 0.486187 0.303000
vt 0.205152 0.303000
vt 0.205152 0.021965
vt 0.652325 0.600025
vt 0.652325 0.764718
vt 0.400959 0.747114
vt 0.657802 0.600097
vt 0.657802 0.767106
vt 0.402901 0.749254
vt 0.404386 0.617623
vt 0.660549 0.599683
vt 0.660549 0.767519
vt 0.659951 0.600741
vt 0.659951 0.768922
vt 0.403261 0.750945
vt 0.659464 0.599644
vt 0.659464 0.767559
vt 0.403178 0.749608
vt 0.654771 0.600588
vt 0.654771 0.766614
vt 0.401369 0.748867
vt 0.927699 0.031335
vt 0.400958 0.617632
vt 0.048475 0.734143
vt 0.402901 0.617950
vt 0.045459 0.736099
vt 0.404385 0.749577
vt 0.045173 0.736354
vt 0.403261 0.618720
vt 0.043310 0.737699
vt 0.403179 0.617592
vt 0.043797 0.736380
vt 0.401369 0.618335
vt 0.046030 0.735789
vt 0.719946 0.031353
vt 0.882504 0.031407
vt 0.801178 0.172160
vt 0.963737 0.172214
vt 0.882410 0.312967
vt 0.719852 0.312913
vt 0.638619 0.172107
vt 0.402827 0.616813
vt 0.657363 0.598986
vt 0.657363 0.765756
vt 0.659410 0.599658
vt 0.659410 0.767544
vt 0.654051 0.600449
vt 0.654051 0.766753
vt 0.400223 0.748974
vt 0.651899 0.602601
vt 0.651899 0.767061
vt 0.400887 0.749484
vt 0.401093 0.616981
vt 0.654049 0.599267
vt 0.654049 0.765001
vt 0.654510 0.600660
vt 0.654510 0.766546
vt 0.401325 0.748813
vt 0.045898 0.629946
vt 0.402827 0.747927
vt 0.043851 0.630833
vt 0.400225 0.618224
vt 0.044288 0.735871
vt 0.400887 0.620182
vt 0.048901 0.736530
vt 0.046380 0.630035
vt 0.401093 0.747284
vt 0.401325 0.618395
vt 0.046290 0.735748
vt 0.882275 0.312963
vt 0.719790 0.312795
vt 0.638693 0.171992
vt 0.720084 0.031361
vt 0.882569 0.031530
vt 0.963664 0.172331
vt 0.653420 0.602187
vt 0.653420 0.767478
vt 0.401143 0.749812
vt 0.400793 0.619622
vt 0.653887 0.601898
vt 0.653887 0.767723
vt 0.401638 0.619719
vt 0.654495 0.602009
vt 0.654495 0.767678
vt 0.401671 0.618126
vt 0.654692 0.600405
vt 0.654692 0.766183
vt 0.654862 0.600898
vt 0.654862 0.766302
vt 0.402408 0.748621
vt 0.656085 0.602170
vt 0.656084 0.768982
vt 0.401484 0.751152
vt 0.401142 0.619859
vt 0.047381 0.736793
vt 0.045885 0.632683
vt 0.400794 0.749997
vt 0.047061 0.632767
vt 0.401638 0.749969
vt 0.046864 0.631187
vt 0.401670 0.748462
vt 0.402409 0.618577
vt 0.048398 0.735588
vt 0.401483 0.620002
vt 0.044464 0.738013
vt 0.963763 0.172162
vt 0.882466 0.312972
vt 0.719874 0.312972
vt 0.638577 0.172162
vt 0.401917 0.616577
vt 0.657118 0.598703
vt 0.657118 0.765908
vt 0.401794 0.620394
vt 0.653796 0.602746
vt 0.653795 0.767857
vt 0.400659 0.617912
vt 0.654473 0.600134
vt 0.654473 0.766430
vt 0.654026 0.603185
vt 0.654026 0.769236
vt 0.400586 0.751485
vt 0.657170 0.600641
vt 0.657170 0.767875
vt 0.401925 0.749998
vt 0.653851 0.602257
vt 0.653851 0.768213
vt 0.400556 0.750476
vt 0.044055 0.629748
vt 0.401917 0.748035
vt 0.048414 0.633398
vt 0.401791 0.750206
vt 0.044746 0.631011
vt 0.400662 0.748653
vt 0.400586 0.620933
vt 0.045193 0.738404
vt 0.401926 0.618517
vt 0.044002 0.736825
vt 0.400556 0.619998
vt 0.045368 0.737406
vt 0.401193 0.617502
vt 0.652797 0.599881
vt 0.652797 0.764729
vt 0.401775 0.617734
vt 0.656278 0.599908
vt 0.656278 0.766656
vt 0.402746 0.616766
vt 0.657205 0.598945
vt 0.657205 0.765664
vt 0.656370 0.600860
vt 0.656370 0.767657
vt 0.401791 0.749827
vt 0.656219 0.600901
vt 0.656219 0.767615
vt 0.654015 0.600259
vt 0.654015 0.766305
vt 0.400584 0.748554
vt 0.048375 0.630488
vt 0.401192 0.747108
vt 0.044894 0.630869
vt 0.401777 0.748832
vt 0.402746 0.747842
vt 0.401792 0.618688
vt 0.044802 0.736688
vt 0.044955 0.736665
vt 0.400584 0.618008
vt 0.045204 0.735474
vt 0.638707 0.171940
vt 0.720124 0.031344
vt 0.882592 0.031555
vt 0.963643 0.172363
vt 0.882226 0.312958
vt 0.719757 0.312747
vt 0.407827 0.368234
vt 0.660616 0.350530
vt 0.660616 0.516155
vt 0.408616 0.368832
vt 0.662113 0.351078
vt 0.662113 0.517167
vt 0.408369 0.367541
vt 0.663846 0.349649
vt 0.663846 0.517035
vt 0.663438 0.351326
vt 0.663438 0.517817
vt 0.409325 0.500021
vt 0.661685 0.351804
vt 0.661685 0.517340
vt 0.409031 0.499644
vt 0.660620 0.351759
vt 0.660620 0.517387
vt 0.407828 0.499681
vt 0.053348 0.381280
vt 0.407827 0.498451
vt 0.053144 0.381915
vt 0.408616 0.499413
vt 0.050119 0.380727
vt 0.408369 0.499143
vt 0.409325 0.369123
vt 0.052988 0.486906
vt 0.409031 0.369498
vt 0.054741 0.486605
vt 0.407829 0.369464
vt 0.053344 0.486635
vt 0.707238 0.701835
vt 0.948577 0.701835
vt 0.948577 0.943173
vt 0.037743 0.897230
vt 0.663744 0.898901
vt 0.662505 0.899532
vt 0.033409 0.898155
vt 0.485726 0.021913
vt 0.486187 0.021965
vt 0.048475 0.630606
vt 0.045459 0.631104
vt 0.045174 0.630841
vt 0.043310 0.631969
vt 0.043797 0.630816
vt 0.046029 0.631414
vt 0.045898 0.734788
vt 0.043851 0.736378
vt 0.044288 0.631320
vt 0.048901 0.633138
vt 0.046378 0.734229
vt 0.046290 0.631461
vt 0.047379 0.632882
vt 0.045885 0.736932
vt 0.047062 0.736919
vt 0.046864 0.735405
vt 0.048400 0.631602
vt 0.044463 0.633143
vt 0.044054 0.734864
vt 0.048414 0.737198
vt 0.044747 0.735555
vt 0.045193 0.634012
vt 0.044003 0.631690
vt 0.045368 0.633073
vt 0.048376 0.734124
vt 0.044894 0.735698
vt 0.045920 0.734710
vt 0.044802 0.631827
vt 0.044953 0.631858
vt 0.045205 0.631086
vt 0.053348 0.485404
vt 0.053144 0.486331
vt 0.050118 0.485958
vt 0.052987 0.382237
vt 0.054740 0.382537
vt 0.053346 0.382510
vn 1.000000 0.000000 0.000000
vn 0.000000 0.000000 1.000000
vn -1.000000 0.000000 0.000000
vn 0.000000 0.000000 -1.000000
vn 0.000000 -1.000000 -0.000000
vn 0.000000 1.000000 0.000000
vn 0.478700 0.065000 -0.875600
vn 0.987600 -0.148700 -0.050600
vn 0.987600 -0.148700 -0.050500
vn 0.504600 -0.331700 0.797100
vn -0.487300 -0.301000 0.819700
vn -0.513200 0.095700 -0.852900
vn -0.996200 -0.087300 -0.005300
vn -0.035300 -0.972500 -0.230100
vn 0.483300 0.122000 -0.866900
vn 0.995000 -0.092800 -0.037400
vn 0.509400 -0.276800 0.814800
vn -0.487800 -0.246000 0.837600
vn -0.513900 0.152800 -0.844100
vn -0.999500 -0.031100 0.008100
vn -0.444800 0.621200 -0.645100
vn -0.881800 0.455700 0.121700
vn -0.421400 0.262400 0.868100
vn 0.475900 0.234600 0.847600
vn 0.912900 0.400200 0.080800
vn 0.452500 0.593500 -0.665600
vn 0.144200 0.031300 -0.989100
vn 0.144100 0.031300 -0.989100
vn 0.902500 0.212200 -0.374700
vn 0.796200 0.066300 0.601400
vn -0.068500 -0.260400 0.963100
vn -0.720500 -0.295400 -0.627300
vn -0.720600 -0.295400 -0.627300
vn -0.826900 -0.441200 0.348700
vn 0.311900 -0.944100 -0.107100
vn 0.126800 0.086500 -0.988200
vn 0.889200 0.268300 -0.370500
vn 0.782400 0.121600 0.610800
vn -0.087000 -0.206800 0.974500
vn -0.742600 -0.242000 -0.624500
vn -0.849500 -0.388700 0.356800
vn -0.823300 0.251800 -0.508700
vn -0.919500 0.119900 0.374400
vn -0.233400 0.283500 0.930100
vn 0.548800 0.579000 0.602900
vn 0.645000 0.711000 -0.280100
vn -0.041100 0.547400 -0.835900
vn 0.450600 -0.227800 -0.863200
vn 0.935600 -0.353000 -0.006200
vn 0.456300 -0.243000 0.856000
vn -0.508100 -0.007900 0.861300
vn -0.513800 0.007300 -0.857900
vn -0.993100 0.117300 0.004300
vn -0.236900 -0.971500 -0.007800
vn 0.466800 -0.172500 -0.867400
vn 0.954400 -0.298300 -0.005800
vn 0.472500 -0.187800 0.861100
vn -0.497000 0.048700 0.866400
vn -0.502700 0.063900 -0.862100
vn -0.984600 0.174500 0.004800
vn -0.334500 0.540700 -0.771800
vn -0.768200 0.640200 0.008200
vn -0.329400 0.527000 0.783400
vn 0.543000 0.314300 0.778700
vn 0.976700 0.214800 -0.001300
vn 0.537900 0.328000 -0.776600
vn 0.451900 -0.501200 -0.738000
vn 0.972700 -0.224200 0.060400
vn 0.507400 0.166100 0.845600
vn -0.478700 0.279300 0.832400
vn -0.534100 -0.387900 -0.751100
vn -0.999400 0.002300 0.034000
vn -0.110300 -0.914500 0.389200
vn 0.460800 -0.450700 -0.764600
vn 0.984300 -0.172200 0.038100
vn 0.516500 0.220200 0.827500
vn -0.474800 0.334100 0.814200
vn -0.530600 -0.336800 -0.777900
vn -0.530600 -0.336800 -0.777800
vn -0.998400 0.055600 0.011600
vn -0.998400 0.055600 0.011500
vn -0.422600 0.151800 -0.893500
vn -0.843500 0.504900 -0.183200
vn -0.372400 0.755500 0.539000
vn 0.519600 0.653000 0.551000
vn 0.940600 0.299900 -0.159300
vn 0.469400 0.049400 -0.881600
vn 0.469300 -0.239400 -0.850000
vn 0.988900 0.121600 -0.085200
vn 0.551100 0.248300 0.796600
vn -0.406300 0.013900 0.913600
vn -0.488200 -0.473800 -0.733000
vn -0.488200 -0.473700 -0.733000
vn -0.925900 -0.347100 0.148800
vn 0.259500 -0.929400 0.262400
vn 0.456700 -0.186600 -0.869800
vn 0.979100 0.176400 -0.100900
vn 0.539000 0.303700 0.785700
vn -0.423600 0.068100 0.903300
vn -0.505900 -0.422200 -0.752200
vn -0.946000 -0.294900 0.134400
vn -0.946100 -0.294900 0.134300
vn -0.584300 0.082400 -0.807300
vn -0.980400 0.197000 -0.009600
vn -0.510300 0.523600 0.682300
vn 0.355900 0.735600 0.576400
vn 0.752000 0.621000 -0.221300
vn 0.281800 0.294400 -0.913200
vn 0.496300 -0.121300 -0.859600
vn 0.992600 -0.121300 -0.000000
vn 0.496300 -0.121300 0.859600
vn -0.496300 -0.121300 0.859600
vn -0.496300 -0.121300 -0.859600
vn -0.992600 -0.121300 0.000000
vn 0.499000 -0.063700 -0.864300
vn 0.998000 -0.063700 -0.000000
vn 0.499000 -0.063700 0.864300
vn -0.499000 -0.063700 0.864300
vn -0.499000 -0.063700 -0.864300
vn -0.998000 -0.063700 0.000000
vn -0.449000 0.440000 -0.777700
vn -0.898000 0.440000 0.000000
vn -0.449000 0.440000 0.777700
vn 0.449000 0.440000 0.777700
vn 0.898000 0.440000 0.000000
vn 0.449000 0.440000 -0.777700
vn -0.478600 0.279300 0.832400
vn 0.539000 0.303700 0.785600
usemtl CrystalCluster
s 1
f 1/1/1 2/2/1 3/3/1
f 1/4/2 4/5/2 5/6/2
f 4/7/3 6/8/3 7/9/3
f 8/10/4 3/11/4 7/12/4
f 2/13/5 5/14/5 7/15/5
f 6/16/6 4/17/6 1/18/6
f 9/19/7 10/20/7 11/21/7
f 10/22/8 12/23/9 13/24/8
f 13/25/10 12/26/10 14/27/10
f 14/28/11 15/29/11 16/30/11
f 17/31/12 9/32/12 18/33/12
f 15/34/13 17/35/13 19/36/13
f 20/37/14 21/37/14 22/37/14
f 18/38/15 11/21/15 23/39/15
f 11/40/16 13/24/16 21/41/16
f 13/25/17 24/42/17 25/43/17
f 24/44/18 16/30/18 22/45/18
f 19/46/19 18/33/19 20/47/19
f 16/48/20 19/36/20 26/49/20
f 9/50/21 17/51/21 27/52/21
f 17/51/22 15/53/22 27/52/22
f 15/53/23 14/54/23 27/52/23
f 14/54/24 12/55/24 27/52/24
f 12/55/25 10/56/25 27/52/25
f 10/56/26 9/50/26 27/52/26
f 28/57/27 29/58/28 30/59/28
f 31/46/29 30/60/29 32/61/29
f 32/62/30 33/63/30 34/64/30
f 33/65/31 35/66/31 36/67/31
f 37/68/32 38/69/33 29/70/32
f 35/71/34 38/72/34 37/73/34
f 39/37/35 40/37/35 41/37/35
f 42/74/36 28/57/36 31/75/36
f 43/76/37 31/46/37 44/33/37
f 44/77/38 34/64/38 41/78/38
f 34/79/39 36/67/39 45/80/39
f 39/81/40 37/68/40 28/82/40
f 36/83/41 37/73/41 39/84/41
f 29/85/42 38/86/42 46/52/42
f 38/86/43 35/87/43 46/52/43
f 35/87/44 33/88/44 46/52/44
f 33/88/45 32/89/45 46/52/45
f 32/89/46 30/90/46 46/52/46
f 30/90/47 29/85/47 46/52/47
f 47/91/48 48/92/48 49/93/48
f 49/94/49 48/95/49 50/96/49
f 51/97/50 50/98/50 52/99/50
f 53/100/51 52/101/51 54/102/51
f 55/103/52 47/104/52 56/105/52
f 54/106/53 55/107/53 57/108/53
f 58/37/54 59/37/54 60/37/54
f 56/109/55 49/93/55 59/110/55
f 59/111/56 49/94/56 51/112/56
f 61/113/57 51/97/57 53/114/57
f 62/115/58 53/100/58 63/116/58
f 57/117/59 56/105/59 58/118/59
f 63/119/60 57/108/60 64/120/60
f 47/50/61 55/51/61 65/52/61
f 55/51/62 54/121/62 65/52/62
f 54/121/63 52/122/63 65/52/63
f 52/122/64 50/123/64 65/52/64
f 50/123/65 48/124/65 65/52/65
f 48/124/66 47/50/66 65/52/66
f 66/125/67 67/126/67 68/127/67
f 69/128/68 68/129/68 70/130/68
f 71/131/69 70/132/69 72/133/69
f 72/134/70 73/135/70 74/136/70
f 75/137/71 67/138/71 66/139/71
f 73/140/72 75/141/72 76/142/72
f 77/37/73 78/37/73 79/37/73
f 77/143/74 66/125/74 69/144/74
f 78/145/75 69/128/75 71/146/75
f 80/147/76 71/131/76 81/148/76
f 81/149/77 74/136/77 82/150/77
f 76/151/78 66/139/78 77/152/79
f 74/153/80 76/142/80 83/154/81
f 67/51/82 75/121/82 84/52/82
f 75/121/83 73/122/83 84/52/83
f 73/122/84 72/123/84 84/52/84
f 72/123/85 70/124/85 84/52/85
f 70/124/86 68/50/86 84/52/86
f 68/50/87 67/51/87 84/52/87
f 85/155/88 86/156/88 87/157/88
f 88/158/89 87/159/89 89/160/89
f 90/161/90 89/162/90 91/163/90
f 91/164/91 92/165/91 93/166/91
f 94/167/92 86/168/93 85/166/92
f 92/169/94 94/170/94 95/171/94
f 96/37/95 97/37/95 98/37/95
f 96/172/96 85/155/96 88/173/96
f 99/174/97 88/158/97 90/175/97
f 97/74/98 90/161/98 100/176/98
f 100/177/99 93/166/99 101/178/99
f 95/177/100 85/166/100 96/179/100
f 93/180/101 95/171/101 102/181/102
f 86/182/103 94/183/103 103/52/103
f 94/183/104 92/184/104 103/52/104
f 92/184/105 91/185/105 103/52/105
f 91/185/106 89/186/106 103/52/106
f 89/186/107 87/187/107 103/52/107
f 87/187/108 86/182/108 103/52/108
f 104/188/109 105/189/109 106/190/109
f 107/191/110 106/192/110 108/193/110
f 109/194/111 108/195/111 110/196/111
f 110/197/112 111/198/112 112/199/112
f 113/200/113 105/201/113 104/202/113
f 111/203/114 113/204/114 114/205/114
f 115/37/5 116/37/5 117/37/5
f 115/206/115 104/188/115 107/207/115
f 118/208/116 107/191/116 109/209/116
f 116/210/117 109/194/117 119/211/117
f 119/212/118 112/199/118 120/213/118
f 114/214/119 104/202/119 115/215/119
f 112/216/120 114/205/120 121/217/120
f 105/218/121 113/219/121 122/220/121
f 113/218/122 111/219/122 122/220/122
f 111/218/123 110/219/123 122/220/123
f 110/218/124 108/219/124 122/220/124
f 108/218/125 106/219/125 122/220/125
f 106/218/126 105/219/126 122/220/126
f 8/221/1 1/1/1 3/3/1
f 2/222/2 1/4/2 5/6/2
f 5/223/3 4/7/3 7/9/3
f 6/224/4 8/10/4 7/12/4
f 3/225/5 2/13/5 7/15/5
f 8/226/6 6/16/6 1/18/6
f 18/38/7 9/19/7 11/21/7
f 11/40/8 10/22/8 13/24/8
f 24/42/10 13/25/10 14/27/10
f 24/44/11 14/28/11 16/30/11
f 19/46/12 17/31/12 18/33/12
f 16/48/13 15/34/13 19/36/13
f 22/37/14 26/37/14 20/37/14
f 21/37/14 25/37/14 22/37/14
f 20/37/14 23/37/14 21/37/14
f 20/227/15 18/38/15 23/39/15
f 23/228/16 11/40/16 21/41/16
f 21/229/17 13/25/17 25/43/17
f 25/230/18 24/44/18 22/45/18
f 26/231/19 19/46/19 20/47/19
f 22/232/20 16/48/20 26/49/20
f 31/75/27 28/57/27 30/59/28
f 44/33/29 31/46/29 32/61/29
f 44/77/30 32/62/30 34/64/30
f 34/79/31 33/65/31 36/67/31
f 28/82/32 37/68/32 29/70/32
f 36/83/34 35/71/34 37/73/34
f 40/37/35 39/37/35 42/37/35
f 39/37/35 41/37/35 45/37/35
f 42/37/35 43/37/35 40/37/35
f 43/233/36 42/74/36 31/75/36
f 40/234/37 43/76/37 44/33/37
f 40/235/38 44/77/38 41/78/38
f 41/236/39 34/79/39 45/80/39
f 42/237/40 39/81/40 28/82/40
f 45/238/41 36/83/41 39/84/41
f 56/109/48 47/91/48 49/93/48
f 51/112/49 49/94/49 50/96/49
f 53/114/50 51/97/50 52/99/50
f 63/116/51 53/100/51 54/102/51
f 57/117/52 55/103/52 56/105/52
f 63/119/53 54/106/53 57/108/53
f 60/37/54 64/37/54 58/37/54
f 59/37/54 62/37/54 60/37/54
f 62/37/54 59/37/54 61/37/54
f 58/239/55 56/109/55 59/110/55
f 61/240/56 59/111/56 51/112/56
f 62/241/57 61/113/57 53/114/57
f 60/242/58 62/115/58 63/116/58
f 64/243/59 57/117/59 58/118/59
f 60/244/60 63/119/60 64/120/60
f 69/144/67 66/125/67 68/127/67
f 71/146/68 69/128/68 70/130/68
f 81/148/69 71/131/69 72/133/69
f 81/149/127 72/134/70 74/136/70
f 76/151/71 75/137/71 66/139/71
f 74/153/72 73/140/72 76/142/72
f 82/37/73 83/37/73 77/37/73
f 77/37/73 79/37/73 82/37/73
f 79/37/73 78/37/73 80/37/73
f 78/245/74 77/143/74 69/144/74
f 80/246/75 78/145/75 71/146/75
f 79/247/76 80/147/76 81/148/76
f 79/248/77 81/149/77 82/150/77
f 83/249/79 76/151/78 77/152/79
f 82/250/81 74/153/80 83/154/81
f 88/173/88 85/155/88 87/157/88
f 90/175/89 88/158/89 89/160/89
f 100/176/90 90/161/90 91/163/90
f 100/177/91 91/164/91 93/166/91
f 95/177/92 94/167/92 85/166/92
f 93/180/94 92/169/94 95/171/94
f 98/37/95 102/37/95 96/37/95
f 102/37/95 98/37/95 101/37/95
f 96/37/95 99/37/95 97/37/95
f 99/251/96 96/172/96 88/173/96
f 97/252/97 99/174/97 90/175/97
f 98/253/128 97/74/98 100/176/98
f 98/254/99 100/177/99 101/178/99
f 102/255/100 95/177/100 96/179/100
f 101/256/102 93/180/101 102/181/102
f 107/207/109 104/188/109 106/190/109
f 109/209/110 107/191/110 108/193/110
f 119/211/111 109/194/111 110/196/111
f 119/212/112 110/197/112 112/199/112
f 114/214/113 113/200/113 104/202/113
f 112/216/114 111/203/114 114/205/114
f 117/37/5 121/37/5 115/37/5
f 121/37/5 117/37/5 120/37/5
f 115/37/5 118/37/5 116/37/5
f 118/257/115 115/206/115 107/207/115
f 116/258/116 118/208/116 109/209/116
f 117/259/117 116/210/117 119/211/117
f 117/260/118 119/212/118 120/213/118
f 121/261/119 114/214/119 115/215/119
f 120/262/120 112/216/120 121/217/120
